<svg width="322" height="104" viewBox="0 0 322 104" fill="none" xmlns="http://www.w3.org/2000/svg">
<path d="M38.4009 1.14093C37.0397 -0.380247 34.6536 -0.380247 33.2929 1.14093C15.6846 20.8182 0 43.4218 0 64.027C0 85.6238 16.0603 103.107 35.8466 103.107C55.633 103.107 71.6938 85.6227 71.6938 64.027C71.6938 43.4234 56.0098 20.8199 38.4009 1.14093Z" fill="#70C171"/>
<path d="M48.6993 90.4936C48.8997 90.1277 49.2629 89.8801 49.6699 89.8308C53.1045 89.3339 56.5801 85.7723 57.478 82.731C57.5689 82.4023 57.7885 82.1262 58.0898 81.9625C58.3845 81.7987 58.7406 81.7587 59.0627 81.8551C59.3908 81.9526 59.6669 82.1723 59.8307 82.467C59.9945 82.7677 60.035 83.1177 59.9375 83.4458C58.7176 87.5646 54.7889 91.6839 50.0293 92.3724C49.4744 92.4628 48.9249 92.1747 48.6801 91.6664C48.496 91.2944 48.5053 90.8535 48.6993 90.4936Z" fill="white"/>
<path d="M38.8793 75.4202C38.6234 75.7089 38.1463 75.4777 38.2143 75.0981C38.6574 72.6079 38.9318 70.1462 39.1329 67.582C39.1794 66.9899 39.2255 66.4919 39.2682 66.0225C39.4484 64.0587 39.5914 62.5074 39.5448 56.7343C39.5388 55.9948 38.9379 55.3956 38.1978 55.3956C37.4556 55.3956 36.8558 56.0036 36.8618 56.7458C36.9073 62.3934 36.7769 63.8127 36.5961 65.7765C36.5523 66.2575 36.5057 66.7669 36.4581 67.3722C36.2028 70.6293 35.8413 73.6257 35.1686 76.7047C35.104 77 34.7342 77.115 34.5162 76.9058C28.569 71.1995 25.2062 63.3767 25.2062 55.0444C25.2062 46.4202 28.8987 38.1756 35.3368 32.4239C35.4337 32.3374 35.5586 32.2941 35.6835 32.2941C35.8062 32.2941 35.9295 32.3357 36.0259 32.4195C42.6743 38.1882 46.4879 46.5402 46.4879 55.3337C46.4879 62.812 43.7583 69.9134 38.8793 75.4202ZM37.7848 30.3933C36.5687 29.3377 34.7485 29.3503 33.5494 30.4229C26.5416 36.6829 22.5226 45.6572 22.5226 55.0444C22.5226 64.8344 26.7865 73.9806 34.25 80.2762C34.2516 80.2779 34.2527 80.2801 34.2522 80.2823C33.6754 82.2329 32.9528 84.263 32.032 86.453L31.1737 88.6249C30.954 89.1809 31.0937 89.8377 31.5675 90.2014C31.8293 90.4019 32.1224 90.4934 32.4078 90.4934C32.9419 90.4934 33.4475 90.1719 33.6556 89.6449L34.5167 87.4658C35.4715 85.1942 36.2247 83.0661 36.8267 81.0174C36.8273 81.0157 36.8284 81.0146 36.8295 81.0141C36.9407 80.9577 37.0486 80.8925 37.1477 80.8109C44.7887 74.5098 49.1709 65.2233 49.1709 55.3337C49.1709 45.7618 45.0204 36.6714 37.7848 30.3933" fill="white"/>
<path d="M112.583 42.3816H116.345V56.1755H133.453V42.3816H137.215V74H133.453V59.6687H116.345V74H112.583V42.3816ZM140.573 52.4583H144.559L151.948 69.6111L158.621 52.4583H162.473L150.47 82.4196H146.977L150.336 74L140.573 52.4583ZM183.517 70.5515C182.531 71.7458 181.442 72.7012 180.247 73.4178C179.053 74.1045 177.575 74.4479 175.814 74.4479C174.351 74.4479 172.962 74.1941 171.649 73.6865C170.365 73.1491 169.23 72.3877 168.245 71.4025C167.289 70.4172 166.528 69.2378 165.961 67.8644C165.394 66.4612 165.11 64.9086 165.11 63.2068C165.11 61.5049 165.394 59.9524 165.961 58.5491C166.528 57.1458 167.289 55.9516 168.245 54.9663C169.2 53.981 170.32 53.2197 171.604 52.6822C172.888 52.1448 174.246 51.8761 175.679 51.8761C177.5 51.8761 179.098 52.2642 180.471 53.0405C181.874 53.8168 183.039 54.8618 183.964 56.1755V41.2172H187.637V73.9552L183.517 70.5515ZM168.827 63.162C168.827 64.3563 169.006 65.461 169.364 66.4761C169.753 67.4614 170.275 68.3123 170.932 69.0288C171.619 69.7454 172.41 70.3127 173.306 70.7307C174.201 71.1188 175.187 71.3129 176.261 71.3129C177.336 71.3129 178.336 71.1188 179.262 70.7307C180.217 70.3127 181.053 69.7454 181.77 69.0288C182.487 68.2824 183.054 67.4166 183.472 66.4313C183.89 65.4162 184.099 64.3264 184.099 63.162C184.099 61.9976 183.875 60.9227 183.427 59.9374C183.009 58.9223 182.442 58.0565 181.725 57.3399C181.009 56.5935 180.173 56.0262 179.217 55.6381C178.292 55.2201 177.306 55.0111 176.261 55.0111C175.246 55.0111 174.276 55.2051 173.35 55.5933C172.455 55.9814 171.663 56.5338 170.977 57.2503C170.32 57.9669 169.797 58.8327 169.409 59.8479C169.021 60.8332 168.827 61.9379 168.827 63.162ZM206.412 55.6381C205.845 55.3694 205.188 55.235 204.442 55.235C203.725 55.235 202.979 55.3544 202.203 55.5933C201.426 55.8321 200.71 56.2203 200.053 56.7577C199.396 57.2951 198.859 57.9818 198.441 58.8178C198.023 59.6538 197.814 60.6689 197.814 61.8632V74H194.141V52.4135L197.903 54.8319C198.739 53.9064 199.754 53.2047 200.949 52.727C202.173 52.2493 203.367 52.0105 204.531 52.0105C204.89 52.0105 205.218 52.0403 205.517 52.1C205.815 52.1299 206.114 52.1747 206.412 52.2344V55.6381ZM232.043 63.162C232.043 64.7145 231.745 66.1775 231.147 67.5509C230.58 68.9243 229.774 70.1335 228.729 71.1785C227.714 72.1937 226.49 72.9998 225.057 73.5969C223.624 74.1642 222.071 74.4479 220.399 74.4479C218.757 74.4479 217.234 74.1642 215.831 73.5969C214.428 73.0297 213.203 72.2384 212.159 71.2233C211.143 70.2082 210.352 69.0288 209.785 67.6853C209.218 66.3119 208.934 64.834 208.934 63.2516C208.934 61.6691 209.218 60.1912 209.785 58.8178C210.352 57.4145 211.143 56.2053 212.159 55.1902C213.203 54.1452 214.428 53.3391 215.831 52.7718C217.234 52.1747 218.772 51.8761 220.444 51.8761C222.116 51.8761 223.653 52.1747 225.057 52.7718C226.49 53.3391 227.714 54.1303 228.729 55.1454C229.774 56.1606 230.58 57.3548 231.147 58.7282C231.745 60.1017 232.043 61.5796 232.043 63.162ZM228.326 63.2068C228.326 62.0722 228.132 61.0123 227.744 60.027C227.356 59.0119 226.803 58.1311 226.087 57.3847C225.4 56.6383 224.564 56.0561 223.579 55.6381C222.623 55.1902 221.563 54.9663 220.399 54.9663C219.235 54.9663 218.175 55.1902 217.219 55.6381C216.264 56.0561 215.443 56.6383 214.756 57.3847C214.099 58.1013 213.577 58.9671 213.189 59.9822C212.83 60.9675 212.651 62.0274 212.651 63.162C212.651 64.3264 212.845 65.4162 213.233 66.4313C213.651 67.4166 214.204 68.2824 214.89 69.0288C215.577 69.7454 216.398 70.3127 217.354 70.7307C218.309 71.1487 219.339 71.3577 220.444 71.3577C221.578 71.3577 222.623 71.1487 223.579 70.7307C224.564 70.2828 225.4 69.6857 226.087 68.9393C226.803 68.1929 227.356 67.327 227.744 66.3417C228.132 65.3565 228.326 64.3115 228.326 63.2068ZM240.853 74H237.225V41.2172H240.853V74ZM269.262 63.162C269.262 64.7145 268.964 66.1775 268.366 67.5509C267.799 68.9243 266.993 70.1335 265.948 71.1785C264.933 72.1937 263.709 72.9998 262.276 73.5969C260.842 74.1642 259.29 74.4479 257.618 74.4479C255.976 74.4479 254.453 74.1642 253.05 73.5969C251.647 73.0297 250.422 72.2384 249.377 71.2233C248.362 70.2082 247.571 69.0288 247.004 67.6853C246.437 66.3119 246.153 64.834 246.153 63.2516C246.153 61.6691 246.437 60.1912 247.004 58.8178C247.571 57.4145 248.362 56.2053 249.377 55.1902C250.422 54.1452 251.647 53.3391 253.05 52.7718C254.453 52.1747 255.991 51.8761 257.663 51.8761C259.335 51.8761 260.872 52.1747 262.276 52.7718C263.709 53.3391 264.933 54.1303 265.948 55.1454C266.993 56.1606 267.799 57.3548 268.366 58.7282C268.964 60.1017 269.262 61.5796 269.262 63.162ZM265.545 63.2068C265.545 62.0722 265.351 61.0123 264.963 60.027C264.575 59.0119 264.022 58.1311 263.306 57.3847C262.619 56.6383 261.783 56.0561 260.798 55.6381C259.842 55.1902 258.782 54.9663 257.618 54.9663C256.454 54.9663 255.394 55.1902 254.438 55.6381C253.483 56.0561 252.662 56.6383 251.975 57.3847C251.318 58.1013 250.796 58.9671 250.408 59.9822C250.049 60.9675 249.87 62.0274 249.87 63.162C249.87 64.3264 250.064 65.4162 250.452 66.4313C250.87 67.4166 251.423 68.2824 252.109 69.0288C252.796 69.7454 253.617 70.3127 254.573 70.7307C255.528 71.1487 256.558 71.3577 257.663 71.3577C258.797 71.3577 259.842 71.1487 260.798 70.7307C261.783 70.2828 262.619 69.6857 263.306 68.9393C264.022 68.1929 264.575 67.327 264.963 66.3417C265.351 65.3565 265.545 64.3115 265.545 63.2068ZM286.536 55.6381C285.969 55.3694 285.312 55.235 284.565 55.235C283.849 55.235 283.102 55.3544 282.326 55.5933C281.55 55.8321 280.833 56.2203 280.176 56.7577C279.52 57.2951 278.982 57.9818 278.564 58.8178C278.146 59.6538 277.937 60.6689 277.937 61.8632V74H274.265V52.4135L278.027 54.8319C278.863 53.9064 279.878 53.2047 281.072 52.727C282.296 52.2493 283.49 52.0105 284.655 52.0105C285.013 52.0105 285.342 52.0403 285.64 52.1C285.939 52.1299 286.237 52.1747 286.536 52.2344V55.6381ZM300.478 71.3577C302.18 71.3577 303.613 71.0292 304.777 70.3724C305.971 69.6857 307.001 68.9243 307.867 68.0884V72.0295C306.972 72.746 305.882 73.3432 304.598 73.8209C303.314 74.2687 301.866 74.4926 300.254 74.4926C298.642 74.4926 297.149 74.2239 295.775 73.6865C294.432 73.1192 293.252 72.3429 292.237 71.3577C291.252 70.3724 290.476 69.1931 289.908 67.8196C289.341 66.4462 289.057 64.9385 289.057 63.2963C289.057 61.6841 289.296 60.1912 289.774 58.8178C290.282 57.4145 290.983 56.2053 291.879 55.1902C292.775 54.1452 293.85 53.3242 295.103 52.727C296.387 52.1299 297.82 51.8313 299.403 51.8313C300.955 51.8313 302.329 52.115 303.523 52.6822C304.747 53.2197 305.792 53.9512 306.658 54.8767C307.554 55.8023 308.255 56.8921 308.763 58.146C309.3 59.3702 309.659 60.6839 309.838 62.0871L293.043 66.1626C293.551 67.6853 294.417 68.9393 295.641 69.9245C296.895 70.88 298.507 71.3577 300.478 71.3577ZM292.819 63.2516L306.121 59.8479C305.733 58.4745 304.956 57.325 303.792 56.3994C302.657 55.444 301.239 54.9663 299.537 54.9663C298.433 54.9663 297.447 55.1902 296.581 55.6381C295.716 56.0859 294.984 56.6831 294.387 57.4295C293.82 58.1759 293.387 59.0268 293.088 59.9822C292.79 60.9376 292.64 61.9229 292.64 62.9381L292.819 63.2516Z" fill="#636A7F"/>
</svg>
