<svg width="15" height="11" viewBox="0 0 15 11" fill="none" xmlns="http://www.w3.org/2000/svg">
<path d="M13.8863 3.56641C14.2379 2.67578 14.4605 1.72656 14.5894 0.753906C14.6129 0.578125 14.4957 0.460938 14.3199 0.460938C14.2144 0.460938 14.109 0.472656 14.0035 0.484375C13.1011 0.554688 12.1988 0.648437 11.3082 0.847656C11.1558 0.882812 11.0152 0.917969 10.8629 0.953125C9.85505 1.23438 8.81208 1.48047 7.87458 1.98438C7.25348 2.3125 6.67927 2.80469 6.29255 3.41406C6.03473 3.83594 5.90583 4.30469 5.89411 4.79688C5.88239 5.20703 5.90583 5.80469 6.12848 6.16797C6.12848 6.22656 6.11677 6.28516 6.09333 6.30859C5.8238 6.63672 5.5777 7.02344 5.34333 7.49219C5.31989 7.57422 5.27302 7.67969 5.23786 7.77344C5.22614 7.80859 5.21442 7.84375 5.2027 7.87891C5.17927 7.80859 5.15583 7.72656 5.12067 7.65625C5.08552 7.55078 5.03864 7.44531 4.99176 7.36328C4.93317 7.23438 4.85114 7.10547 4.83942 6.95312C4.8277 6.80078 4.89802 6.63672 4.90973 6.47266C5.05036 5.39453 4.93317 4.35156 4.55817 3.33203C4.31208 2.67578 3.8902 2.18359 3.30427 1.82031C2.71833 1.45703 2.08552 1.23437 1.42927 1.03516C1.25348 0.988281 1.0777 0.941406 0.901921 0.894531C0.749578 0.859375 0.644109 0.941406 0.63239 1.08203C0.562078 1.83203 0.491765 2.57031 0.433171 3.30859C0.374578 4.05859 0.386296 4.80859 0.585515 5.54688C0.737859 6.12109 1.01911 6.625 1.53473 6.95312C2.03864 7.28125 2.60114 7.45703 3.18708 7.52734C3.63239 7.57422 4.0777 7.58594 4.5113 7.49219C4.60505 7.70312 4.67536 7.91406 4.72223 8.13672C4.75739 8.3125 4.78083 8.5 4.79255 8.67578C4.86286 9.27344 4.67536 9.50781 4.66364 10.0938C4.66364 10.293 4.73395 10.4453 4.87458 10.5039C5.00348 10.5625 5.16755 10.5391 5.30817 10.4219C5.51911 10.2578 5.5777 10 5.60114 9.74219C5.62458 9.49609 5.61286 9.57812 5.64802 9.33203C5.71833 8.6875 5.88239 8.03125 6.17536 7.44531C6.3277 7.14062 6.52692 6.87109 6.74958 6.61328C6.97223 6.35547 7.20661 6.12109 7.41755 5.85156C7.66364 5.53516 7.99177 5.26562 8.28473 4.99609C8.87067 4.44531 9.48005 3.91797 10.1246 3.42578C10.7574 2.93359 11.4019 2.48828 12.0816 2.06641C11.2144 2.86328 10.2183 3.73047 9.26911 4.64453C8.41364 5.46484 6.98395 7.28125 6.71442 7.63281C6.69098 7.65625 6.71442 7.69141 6.73786 7.69141C6.79645 7.70312 6.86677 7.72656 6.91364 7.72656C7.24177 7.77344 7.53473 7.76172 7.87458 7.76172C8.29645 7.75 8.71833 7.76172 9.12848 7.72656H9.1402C10.4058 7.63281 11.4957 7.14062 12.3394 6.15625C13.0191 5.37109 13.523 4.50391 13.8863 3.56641Z" fill="#70C171"/>
</svg>
