<svg width="36" height="36" viewBox="0 0 36 36" fill="none" xmlns="http://www.w3.org/2000/svg">
<path d="M13.6577 9.40493C15.2608 10.5299 17.117 10.6987 17.8033 9.73681C18.4895 8.77493 17.7527 7.06493 16.1439 5.92306C14.5352 4.78118 11.9983 5.59118 11.9983 5.59118C11.9983 5.59118 12.0545 8.26306 13.6577 9.40493Z" fill="#74C2A1"/>
<path d="M18.613 12.0878L18.4386 11.8066C17.8761 10.8784 17.3136 10.0066 14.9849 8.76906L15.508 7.77344C18.1349 9.15719 18.7761 10.2034 19.4005 11.2159L19.5636 11.4916L18.613 12.0878Z" fill="#6BB394"/>
<path d="M34.875 17.998H1.125V34.873H34.875V17.998Z" fill="#BFA773"/>
<path d="M21.4479 2.86793C19.6929 4.73543 19.1979 7.10918 20.3229 8.16105C21.4479 9.21293 23.7823 8.54918 25.5373 6.68168C27.2923 4.81418 26.6623 1.38293 26.6623 1.38293C26.6623 1.38293 23.2029 0.994803 21.4479 2.86793Z" fill="#77C7A6"/>
<path d="M18.6189 18.0334L17.4939 17.9659C17.702 14.6696 18.5626 8.64523 21.9939 5.28711L22.7814 6.09148C19.6201 9.18523 18.8158 14.9002 18.6189 18.0334Z" fill="#6EB899"/>
<path d="M24.542 22.6296L18.3545 17.5671C18.2896 17.5133 18.2135 17.4747 18.1317 17.4543C18.0499 17.4338 17.9646 17.432 17.882 17.449C17.8001 17.467 17.7232 17.5032 17.657 17.5547C17.5908 17.6063 17.537 17.6721 17.4995 17.7471L15.0751 22.5903L11.7339 23.0628L11.8914 24.1878L14.462 23.8221L13.562 25.6278L14.5633 26.134L15.8176 23.6253L18.1745 18.9059L21.9039 21.9378L20.852 24.559L21.8983 24.9753L22.8151 22.6859L23.8333 23.5128L24.542 22.6296Z" fill="#99865C"/>
<path d="M6.75 27C8.61396 27 10.125 25.489 10.125 23.625C10.125 21.761 8.61396 20.25 6.75 20.25C4.88604 20.25 3.375 21.761 3.375 23.625C3.375 25.489 4.88604 27 6.75 27Z" fill="#E6E6E6"/>
<path d="M8.4375 23.0625H7.3125V21.9375H6.1875V23.0625H5.0625V24.1875H6.1875V25.3125H7.3125V24.1875H8.4375V23.0625Z" fill="#83ABE6"/>
<path d="M9 31.5H7.875V32.625H9V31.5Z" fill="#99865C"/>
<path d="M15.75 28.125H14.625V29.25H15.75V28.125Z" fill="#99865C"/>
<path d="M21.375 29.25H20.25V30.375H21.375V29.25Z" fill="#99865C"/>
<path d="M15.75 33.75H14.625V34.875H15.75V33.75Z" fill="#99865C"/>
<path d="M19.125 24.75H18V25.875H19.125V24.75Z" fill="#99865C"/>
<path d="M28.125 20.25H27V21.375H28.125V20.25Z" fill="#99865C"/>
<path d="M3.37476 28.125H2.24976V29.25H3.37476V28.125Z" fill="#99865C"/>
<path d="M29.25 33.75C31.7353 33.75 33.75 31.7353 33.75 29.25C33.75 26.7647 31.7353 24.75 29.25 24.75C26.7647 24.75 24.75 26.7647 24.75 29.25C24.75 31.7353 26.7647 33.75 29.25 33.75Z" fill="#E6E6E6"/>
<path d="M34.875 17.4375H1.125V19.125H34.875V17.4375Z" fill="#99865C"/>
<path d="M29.25 26.4375L27.6413 29.3287C27.4854 29.6088 27.4054 29.9248 27.4093 30.2453C27.4132 30.5658 27.5007 30.8798 27.6633 31.156C27.8259 31.4323 28.0578 31.6612 28.3361 31.8202C28.6144 31.9792 28.9295 32.0628 29.25 32.0625C29.5705 32.0628 29.8856 31.9792 30.1639 31.8202C30.4422 31.6612 30.6742 31.4323 30.8367 31.156C30.9993 30.8798 31.0868 30.5658 31.0907 30.2453C31.0946 29.9248 31.0146 29.6088 30.8588 29.3287L29.25 26.4375Z" fill="#7FA8E6"/>
</svg>
