<svg width="36" height="36" viewBox="0 0 36 36" fill="none" xmlns="http://www.w3.org/2000/svg">
<g clip-path="url(#clip0_862_2887)">
<path d="M15.7026 22.4289V6.65681C15.7026 4.3352 13.8247 2.46289 11.496 2.46289C9.16743 2.46289 7.28951 4.3352 7.28951 6.65681V22.4289C5.32143 23.762 4.04443 26.0087 4.04443 28.57C4.04443 32.674 7.37959 35.9992 11.496 35.9992C15.6125 35.9992 18.9476 32.674 18.9476 28.57C18.9477 26.0087 17.6707 23.762 15.7026 22.4289Z" fill="#FFA73F"/>
<path d="M12.7268 25.0161V5.86719H10.2653V25.0161C8.74498 25.5295 7.6499 26.9662 7.6499 28.6597C7.6499 30.7836 9.3719 32.5056 11.4961 32.5056C13.6202 32.5056 15.3422 30.7837 15.3422 28.6597C15.3422 26.9663 14.2471 25.5295 12.7268 25.0161Z" fill="#FFDCB2"/>
<path d="M0 6.03906H4.22154V8.50045H0V6.03906ZM0 10.3698H4.22154V12.8311H0V10.3698ZM0 14.7154H4.22154V17.1768H0V14.7154Z" fill="#70C171"/>
<path d="M33.569 8.81954C33.2407 6.75892 32.1467 4.97923 30.4885 3.80823C28.8334 2.63938 26.8061 2.21177 24.7807 2.60431L24.3125 0.187847C27.003 -0.333307 29.7006 0.238385 31.9085 1.79769C34.1133 3.35469 35.5663 5.71092 35.9999 8.43231L33.569 8.81954ZM29.9144 9.90339C29.731 8.75239 29.1215 7.75931 28.198 7.10723C27.278 6.45739 26.1496 6.22 25.0208 6.43854L24.5527 4.02208C26.346 3.67477 28.1448 4.05631 29.6181 5.09669C31.088 6.13477 32.0566 7.70431 32.3453 9.51608L29.9144 9.90339Z" fill="#646A7E"/>
<path opacity="0.5" d="M27.7319 10.9318C28.2995 10.1143 28.1055 8.98967 27.2987 8.4199C26.4918 7.85013 25.3776 8.05097 24.81 8.86851C24.2424 9.68605 24.4364 10.8107 25.2433 11.3804C26.0501 11.9502 27.1644 11.7494 27.7319 10.9318Z" fill="#646A7E"/>
</g>
<defs>
<clipPath id="clip0_862_2887">
<rect width="36" height="36" fill="white"/>
</clipPath>
</defs>
</svg>
