<svg width="13" height="12" viewBox="0 0 13 12" fill="none" xmlns="http://www.w3.org/2000/svg">
<path d="M6.5 11C9.26142 11 11.5 8.76142 11.5 6C11.5 3.23858 9.26142 1 6.5 1C3.73858 1 1.5 3.23858 1.5 6C1.5 8.76142 3.73858 11 6.5 11Z" fill="#FFA73F"/>
<path d="M6.5 6.875C6.705 6.875 6.875 6.705 6.875 6.5V4C6.875 3.795 6.705 3.625 6.5 3.625C6.295 3.625 6.125 3.795 6.125 4V6.5C6.125 6.705 6.295 6.875 6.5 6.875Z" fill="#FCFCFC"/>
<path d="M6.96 7.80945C6.935 7.74945 6.9 7.69445 6.855 7.64445C6.805 7.59945 6.75 7.56445 6.69 7.53945C6.57 7.48945 6.43 7.48945 6.31 7.53945C6.25 7.56445 6.195 7.59945 6.145 7.64445C6.1 7.69445 6.065 7.74945 6.04 7.80945C6.015 7.86945 6 7.93445 6 7.99945C6 8.06445 6.015 8.12945 6.04 8.18945C6.065 8.25445 6.1 8.30445 6.145 8.35445C6.195 8.39945 6.25 8.43445 6.31 8.45945C6.37 8.48445 6.435 8.49945 6.5 8.49945C6.565 8.49945 6.63 8.48445 6.69 8.45945C6.75 8.43445 6.805 8.39945 6.855 8.35445C6.9 8.30445 6.935 8.25445 6.96 8.18945C6.985 8.12945 7 8.06445 7 7.99945C7 7.93445 6.985 7.86945 6.96 7.80945Z" fill="#FCFCFC"/>
</svg>
