<svg width="16" height="16" viewBox="0 0 16 16" fill="none" xmlns="http://www.w3.org/2000/svg">
<path fill-rule="evenodd" clip-rule="evenodd" d="M5.33325 0.833984C5.60939 0.833984 5.83325 1.05784 5.83325 1.33398V3.33398C5.83325 3.61013 5.60939 3.83398 5.33325 3.83398C5.05711 3.83398 4.83325 3.61013 4.83325 3.33398V1.33398C4.83325 1.05784 5.05711 0.833984 5.33325 0.833984Z" fill="#028E04"/>
<path fill-rule="evenodd" clip-rule="evenodd" d="M10.6667 0.833984C10.9429 0.833984 11.1667 1.05784 11.1667 1.33398V3.33398C11.1667 3.61013 10.9429 3.83398 10.6667 3.83398C10.3906 3.83398 10.1667 3.61013 10.1667 3.33398V1.33398C10.1667 1.05784 10.3906 0.833984 10.6667 0.833984Z" fill="#028E04"/>
<path opacity="0.4" d="M14.3334 5.58065V11.4207C14.3334 11.5273 14.3267 11.634 14.3201 11.734H1.68008C1.67341 11.634 1.66675 11.5273 1.66675 11.4207V5.58065C1.66675 3.78732 3.12008 2.33398 4.91341 2.33398H11.0867C12.8801 2.33398 14.3334 3.78732 14.3334 5.58065Z" fill="#70C171"/>
<path d="M14.3199 11.7324C14.1599 13.3791 12.7733 14.6658 11.0866 14.6658H4.91326C3.2266 14.6658 1.83993 13.3791 1.67993 11.7324H14.3199Z" fill="#028E04"/>
<path d="M9.01992 7.74586C9.31992 7.53919 9.50659 7.23253 9.50659 6.81919C9.50659 5.95253 8.81325 5.50586 7.99992 5.50586C7.18659 5.50586 6.48658 5.95253 6.48658 6.81919C6.48658 7.23253 6.67992 7.54586 6.97325 7.74586C6.56659 7.98586 6.33325 8.37253 6.33325 8.82586C6.33325 9.65253 6.96659 10.1659 7.99992 10.1659C9.02659 10.1659 9.66659 9.65253 9.66659 8.82586C9.66659 8.37253 9.43325 7.97919 9.01992 7.74586ZM7.99992 6.33253C8.34659 6.33253 8.59992 6.52586 8.59992 6.85919C8.59992 7.18586 8.34659 7.39253 7.99992 7.39253C7.65325 7.39253 7.39992 7.18586 7.39992 6.85919C7.39992 6.52586 7.65325 6.33253 7.99992 6.33253ZM7.99992 9.33253C7.55992 9.33253 7.23992 9.11253 7.23992 8.71253C7.23992 8.31253 7.55992 8.09919 7.99992 8.09919C8.43992 8.09919 8.75992 8.31919 8.75992 8.71253C8.75992 9.11253 8.43992 9.33253 7.99992 9.33253Z" fill="#028E04"/>
</svg>
